<svg id="圖層_1" data-name="圖層 1" xmlns="http://www.w3.org/2000/svg" viewBox="0 0 469.84 59"><title>動森</title><path d="M16.56,29.27l-4.9.48.17,1.79c.4,0,1.2-.08,2-.16,2.63-.26,2.81-.4,2.76-1.22C16.59,29.88,16.59,29.58,16.56,29.27Z" style="fill:#fff"/><path d="M16.26,26.42c-.14-.88-.43-.88-2.49-.68s-2.39.3-2.34,1.39c0,.22,0,.43,0,.68l4.9-.48C16.34,27,16.29,26.69,16.26,26.42Z" style="fill:#fff"/><path d="M19.39,36.58c0,.15,0,.3,0,.45,0,.43.08.82.12,1.22,0,.15,0,.27,0,.42l.06.64,2.29-.22-.26-2.74Z" style="fill:#fff"/><path d="M23,28.64c0,.31.08.61.11.88.11.94.7.88,3.07.65.88-.08,1.79-.17,2.16-.24l-.17-1.79Z" style="fill:#fff"/><path d="M40.73,26.33C39.39,11.76,27.12,9.7,18.89,10.08,12.71,10.37.5,13,0,27.26s4.38,29.3,4.38,29.3c1,2.66,2.56,3,4.78,1.76a7.91,7.91,0,0,1,6.87-.59c2.29.89,5.78.84,7.25-.36s5.81-1.51,8.68,0c2.4,1.26,6.79,0,7.46-2.56S42.27,43,40.73,26.33ZM12,33.67c.08.79.17,1.73.27,2.77.32,3.4.74,8,1.07,12.35a1.28,1.28,0,0,1-1.17,1.46,1.24,1.24,0,0,1-1.38-1.15V49c-.36-5.64-1.38-15.7-1.94-22.12-.27-2.79,1.35-3,4.31-3.33,1.07-.11,2.16-.21,2.67-.23a2.44,2.44,0,0,1,2.67,2.1c.13,1,.26,2.09.36,3.13.36,3.73.4,4.44-5,5C13.18,33.62,12.51,33.66,12,33.67Zm11.9,13.84a1.17,1.17,0,0,1-1.29-1.16l-.48-5-2.37.23c0,3.28-.83,5.63-3.75,7a1.66,1.66,0,0,1-.49.14,1.16,1.16,0,0,1-1.24-1.14,1.1,1.1,0,0,1,.66-1.2c2.06-.72,2.54-2.45,2.53-4.54l-2.08.2a1.08,1.08,0,0,1-1.28-1,1.17,1.17,0,0,1,1.06-1.3l2.16-.21-.05-.48c-.08-.79-.18-1.55-.27-2.25L15.41,37a1.09,1.09,0,0,1-1.28-1,1.18,1.18,0,0,1,1.06-1.3l10-1A1.16,1.16,0,0,1,25.38,36L24,36.12l.26,2.74,2.14-.21A1.16,1.16,0,0,1,26.64,41l-2.13.21L25,46.12A1.17,1.17,0,0,1,23.93,47.51Zm4.81,1c-1.81.18-2.91,0-3-1.39a1.23,1.23,0,0,1,1-1.45,1.62,1.62,0,0,0,.22,0,9.32,9.32,0,0,0,1.46.05c.88-.09,1.45-.51,1.34-2-.09-1.21-.2-2.61-.34-4-.21-2.19-.45-4.5-.64-6.41,0-.46-.08-.86-.12-1.25-.47.08-1.19.18-2,.25-3.36.33-5.47.5-5.79-2-.09-.58-.15-1.21-.21-1.85-.1-1-.17-2.1-.25-3.14a2.41,2.41,0,0,1,2.18-2.57c.5-.08,1.65-.19,2.74-.3.8-.08,1.55-.15,2-.17,2-.07,2.92,1,3.05,2.35.07.73.14,1.49.22,2.25.43,4.56,1,9.53,1.34,13.43.14,1.45.29,2.73.39,3.79C32.5,46.25,31.75,48.26,28.74,48.55Z" style="fill:#fff"/><path d="M25.26,24.62c-2.21.22-2.5.28-2.47,1.19,0,.28,0,.58.06.89L28,26.2C27.8,24.4,27.69,24.38,25.26,24.62Z" style="fill:#fff"/><path d="M59.9,15.9C44.88,17.32,43.2,31,43.39,37.62s3.49,18,3.49,18c.94,3.18,3.38,3.42,5,2.15a7,7,0,0,1,7-.23c2.15,1.25,6.2.37,8-.91a7.64,7.64,0,0,1,7.13-.8c2.52,1,4.56.41,5.19-1.87.32-1.19,1.45-7.53,1.44-17.72S74.84,14.5,59.9,15.9ZM68,46.71a1,1,0,0,1-.75-.34,14.09,14.09,0,0,0-2.54-2,17.51,17.51,0,0,1-9.53,3.42,1.12,1.12,0,0,1-1.25-1.07,1.06,1.06,0,0,1,1.13-1,15,15,0,0,0,7.54-2.36,15.8,15.8,0,0,0-2.49-.79A.79.79,0,0,1,59.5,42c-.92.71-2.91,2.13-3.7,2.15a1.06,1.06,0,0,1-1.1-1.05,1.11,1.11,0,0,1,.67-1,15.54,15.54,0,0,0,6-5,1,1,0,0,1,.87-.5,1.16,1.16,0,0,1,1.18,1,.8.8,0,0,1-.09.39c1.17-.06,2.52-.11,3.41-.13,1.17,0,1.71.61,1.73,1.37,0,1.31-1.85,3.39-2.06,3.63,2.47,1.36,2.75,2,2.76,2.53A1.3,1.3,0,0,1,68,46.71Zm4.08-8.2a23.06,23.06,0,0,1-8.15-4.28l0,1.2v0a1.11,1.11,0,0,1-2.21,0V34.4c-3,2.7-7.44,4.82-8.11,4.83a1.13,1.13,0,0,1-1.15-1.1,1.11,1.11,0,0,1,.82-1.07,21.39,21.39,0,0,0,8.44-5.14l-.1-2.58-2.42.1c-.09.28-.21.59-.34.9.29.18,1.6,1,1.62,1.84a1,1,0,0,1-.92,1,.77.77,0,0,1-.68-.37,8.06,8.06,0,0,0-.83-1c-.19.33-1.6,2.79-2.61,2.82a1,1,0,0,1-1-1,.83.83,0,0,1,.34-.69,9.13,9.13,0,0,0,2.4-3.56l-3.16.12h0a1,1,0,0,1-1-1,1,1,0,0,1,1-1.09l7.59-.16,0-1.26v0a1.11,1.11,0,0,1,2.21-.05v0l0,1.25,7.73-.16a.94.94,0,0,1,1,1,1,1,0,0,1-.93,1.07H68.46c-.11.26-.3.57-.46.91a15.46,15.46,0,0,1,2.46,1.58,1.14,1.14,0,0,1,.4.81,1.12,1.12,0,0,1-1,1.15.9.9,0,0,1-.68-.32c-.61-.6-1.39-1.3-2-1.77-.61.93-1,1.25-1.39,1.26a.92.92,0,0,1-.93-.85.8.8,0,0,1,.23-.6,8.22,8.22,0,0,0,1.3-2.15H63.83l0,2.61a22.63,22.63,0,0,0,8.66,4.3,1,1,0,0,1,.74,1A1.31,1.31,0,0,1,72.08,38.51Z" style="fill:#fff"/><path d="M65.67,39.72c-.84,0-2.4.05-3.83.11-.33.36-.69.7-1,1a22.1,22.1,0,0,1,3.48,1,7.69,7.69,0,0,0,1.56-2.06S65.79,39.72,65.67,39.72Z" style="fill:#fff"/><path d="M123.51,28c-.57-14.09-12.71-16.71-21-16.78-6.18,0-18.52,1.85-19.74,15.54s2.82,28.41,2.82,28.41c.89,2.61,2.4,3,4.68,1.94a8.19,8.19,0,0,1,6.89-.2c2.24,1,5.73,1.11,7.26,0s5.89-1.15,8.67.45c2.33,1.33,6.78.32,7.59-2.07S124.16,44.16,123.51,28Zm-21.86,1.19,4,.13.06-3.51A1.16,1.16,0,0,1,107,24.71a1.15,1.15,0,0,1,1.19,1.2l-.11,3.51,4.39.08a1.1,1.1,0,1,1,0,2.18l-10.8-.26a1.15,1.15,0,0,1-1.16-1.18A1.06,1.06,0,0,1,101.65,29.23Zm4,11.61a1.35,1.35,0,0,1-1.36,1.37A1.12,1.12,0,0,1,103.24,41a27.18,27.18,0,0,0-1.46-6.88,1.25,1.25,0,0,1-.07-.4,1.19,1.19,0,0,1,1.27-1,1.12,1.12,0,0,1,1.08.79A40.1,40.1,0,0,1,105.68,40.84Zm-8.39,2.31a.57.57,0,0,1,0,.13c0,1.62-.91,3-3.22,2.92-.81,0-2.33-.06-2.3-1.43a1.05,1.05,0,0,1,1-1.15l.23,0a4.3,4.3,0,0,0,.94.16c.53,0,.89-.21.94-1.05l.11-4.6a9.4,9.4,0,0,1-2.17.61,1.21,1.21,0,0,1-1.22-1.22,1.13,1.13,0,0,1,.89-1.1c.9-.26,1.77-.49,2.56-.75l.08-4.19L93,31.46a1.07,1.07,0,0,1-1.14-1.1A1.1,1.1,0,0,1,93,29.25l2.13.05.1-4a1.16,1.16,0,0,1,1.23-1.16,1.13,1.13,0,0,1,1.16,1.22l-.12,4,1.44,0a1.11,1.11,0,1,1,0,2.21l-1.45,0-.08,3.3c.56-.22,1.1-.46,1.64-.72A1.17,1.17,0,0,1,99.5,34a1.09,1.09,0,0,1,1,1.12c0,.71-.5,1-3.15,2.08l-.06,2.31C97.27,40,97.28,42.26,97.29,43.15Zm15.61,2.72-13.13-.32a1.08,1.08,0,0,1-1.17-1.1,1.15,1.15,0,0,1,1.22-1.11l6.15.18a59.44,59.44,0,0,0,2.71-10,1.05,1.05,0,0,1,1.17-.93,1.33,1.33,0,0,1,1.39,1.28,64.73,64.73,0,0,1-3,9.65l4.67.09a1.09,1.09,0,0,1,1.12,1.15A1.07,1.07,0,0,1,112.9,45.87Z" style="fill:#fff"/><path d="M172.42,12.49c-.19-5.41-7.46-6.16-9.57-5.92-.53-1.58,1.14-4.14,3.73-4.4-3.75-2.91-6.47-.24-8.39,2.48C156.33,1.17,153.56.22,149.71,0c-3.32-.18-6.42,1.84-7.38,3.67,2.95-.24,7.64,1.05,9.4,3.66-5.45.62-7.92,3.48-7.44,7.75,3.15-3.25,6.29-3.66,7.87-3.31a4.67,4.67,0,0,0-1.31,4.57c.68-1.11,2.88-3.05,4.53-2.64a12.12,12.12,0,0,1-2.94,5.8,22.37,22.37,0,0,0-7.52-1.73c-15-1-18.83,11.72-19.66,18.08s.66,17.7.66,17.7c.43,3.17,2.81,3.79,4.61,2.83a7.26,7.26,0,0,1,7,.88c1.93,1.53,6.07,1.32,8.06.38a7.92,7.92,0,0,1,7.17.36c2.32,1.37,4.44,1.1,5.41-1,.5-1.08,2.6-6.94,4.16-16.64,1-6.16-.27-13.21-5.15-17.8a44.15,44.15,0,0,0,2.25-8.22,12.57,12.57,0,0,1,6.25,7.75c3-4.73,1.31-8.6-.64-10.68A15.26,15.26,0,0,1,172.42,12.49ZM144.35,46a2.25,2.25,0,0,1-2.69,1.77,2.34,2.34,0,0,1-1.89-2.62,2.43,2.43,0,0,1,2.72-1.86A2.17,2.17,0,0,1,144.35,46Zm3.06-16.43c-.51,2.78-2.31,9.16-2.72,11.45-.11.57-.29,1.56-2,1.24-.82-.16-1.57-.69-1.44-1.42v0c0-.14.06-.31.09-.5.42-2.29,1-7.87,1.47-11.62v-.07c.16-.87,1.37-1.08,2.5-.87S147.58,28.6,147.41,29.52Z" style="fill:#fff"/><path d="M185.9,33.85l0,.43,3.46-.19-.1-1.94C186.11,32.32,185.91,32.42,185.9,33.85Z" style="fill:#fff"/><path d="M196.23,33.13c-.11-1.35-.62-1.32-3.53-1.16l.1,1.94,3.46-.19Z" style="fill:#fff"/><path d="M186.08,37.27c.2,1.26.58,1.28,3.49,1.13l-.11-2.07-3.46.19C186,36.81,186.07,37.06,186.08,37.27Z" style="fill:#fff"/><path d="M216.13,12.52l-36.79,2a3.8,3.8,0,0,0-3.59,4l2,36.8a3.79,3.79,0,0,0,4,3.58l36.8-2a3.8,3.8,0,0,0,3.59-4l-2-36.8A3.79,3.79,0,0,0,216.13,12.52Zm-6.88,40a12.14,12.14,0,0,1-3.71-.43,2,2,0,0,1-1.45-1.83,1.87,1.87,0,0,1,1.71-2.08,3.41,3.41,0,0,1,.81.08,8.13,8.13,0,0,0,2.26.31c1.81-.1,4.79-1.36,4-15.25-.06-1-.15-2-.2-2.91a1.46,1.46,0,0,0-1.65-1.52c-.68,0-1.44,0-2.24.08.18,8.92-1.66,18.63-9.31,24.46a2.33,2.33,0,0,1-1.37.54,1.93,1.93,0,0,1-1.2-3.54A18.14,18.14,0,0,0,198.69,49a115.16,115.16,0,0,1-15.22,3.53,1.69,1.69,0,0,1-1.78-1.68,1.54,1.54,0,0,1,1.39-1.73c2.27-.29,4.66-.63,7-1.09L190,45.45l-5.6.42h0a1.5,1.5,0,0,1-1.72-1.39,1.55,1.55,0,0,1,1.61-1.57l5.61-.34-.09-1.65c-6.21.33-6.76.24-7.08-5.63-.28-5.19.9-5.3,6.52-5.6L189,28l-6.41.35a1.53,1.53,0,1,1-.17-3l6.42-.3-.09-1.78c-2.4.26-4.43.37-5.27.42a1.68,1.68,0,0,1-1.87-1.6,1.61,1.61,0,0,1,1.65-1.69h.12c.85,0,1.7,0,2.58-.06a48.79,48.79,0,0,0,10.32-1.73,1.54,1.54,0,0,1,.42-.07,1.74,1.74,0,0,1,1.82,1.64c.07,1.26-.75,1.73-6.29,2.62l.07,2.07,6.24-.38a1.58,1.58,0,0,1,1.82,1.43c0,.08,0,.21,0,.3a1.69,1.69,0,0,1,1-.31c1.09-.06,2.27-.16,3.46-.23L204.4,19a1.81,1.81,0,0,1,1.84-2,1.88,1.88,0,0,1,2.13,1.75l.31,6.58c1.06-.05,2.15-.07,3.17-.13,2.79-.1,4.57,1.62,4.76,4.45.07,1.22.18,2.48.25,3.75C217.29,41.56,217.1,52.11,209.25,52.53Z" style="fill:#fff"/><path d="M199.62,27.74a2.06,2.06,0,0,1,.06-.55,2.22,2.22,0,0,1-1,.26l-6.25.34.09,1.69c5.53-.3,6.89-.29,7.17,5,.31,5.74-.53,5.91-6.56,6.23l.08,1.61,5.27-.41h0a1.45,1.45,0,0,1,1.63,1.36,1.47,1.47,0,0,1-1.52,1.52l-5.23.36.11,2.07c1.92-.44,3.68-.92,5.22-1.38a1,1,0,0,1,.37-.06,1.37,1.37,0,0,1,1.42,1.06c3.83-5,4.55-11.29,4.38-17.63-1.18.07-2.4.17-3.46.23A1.72,1.72,0,0,1,199.62,27.74Z" style="fill:#fff"/><path d="M196.42,36.67c0-.25,0-.46,0-.72l-3.5.19.11,2.07C195.69,38.07,196.45,38,196.42,36.67Z" style="fill:#fff"/><path d="M268.15,14.47l-36.8-1.93a3.79,3.79,0,0,0-4,3.59l-1.93,36.8a3.79,3.79,0,0,0,3.59,4l36.8,1.93a3.8,3.8,0,0,0,4-3.59l1.93-36.81A3.79,3.79,0,0,0,268.15,14.47ZM234.08,29.9a36.73,36.73,0,0,0,11.48-5.75l-9.84-.35h-.05a1.62,1.62,0,0,1-1.6-1.77,1.66,1.66,0,0,1,1.82-1.64l11.74.61.08-2.32v-.05a1.72,1.72,0,0,1,2-1.58,1.7,1.7,0,0,1,1.76,1.78v0l-.2,2.32,11.94.63a1.71,1.71,0,0,1-.14,3.42h0l-10.12-.69A42.84,42.84,0,0,0,264,30.91a1.72,1.72,0,0,1,1.19,1.67,2.36,2.36,0,0,1-2.44,2.08c-1-.06-6.46-2.8-11.78-7.73l-.28,6.84v0c-.05,1-1,1.47-2,1.42s-1.83-.6-1.78-1.61v0l.43-6.7c-4.59,3.57-11.47,6.59-12.78,6.52a2,2,0,0,1-1.89-2A1.81,1.81,0,0,1,234.08,29.9Zm8,14.25a.16.16,0,0,1-.13,0l-.3,8.27v0a1.64,1.64,0,0,1-1.85,1.51A1.67,1.67,0,0,1,238,52.2v-.05l.55-8c-3.1,4.2-6.58,6.77-7.89,6.7a1.88,1.88,0,0,1-1.72-2,1.8,1.8,0,0,1,1-1.52,22.88,22.88,0,0,0,7.78-7.12l-4.9-.13h0a1.69,1.69,0,0,1,.17-3.37l5.95.35.07-2.87v0a1.8,1.8,0,0,1,3.59.19v0l-.24,2.87,4.1.17h0a1.64,1.64,0,0,1,1.47,1.82,1.51,1.51,0,0,1-1.6,1.56h-.09l-4.17-.35L242,42a1.39,1.39,0,0,1,.91-.37c.08,0,4.36,1.54,4.26,3.44a1.76,1.76,0,0,1-1.65,1.69,1.33,1.33,0,0,1-1-.48A12.74,12.74,0,0,0,242.06,44.15Zm22.49,7.7c-1.82-.1-6-5.69-7-7.23l-.32,8.58v0a1.64,1.64,0,0,1-1.86,1.51A1.66,1.66,0,0,1,253.61,53v0l.56-8.22c-1,1.34-5.29,6.49-7.11,6.4a2,2,0,0,1-1.75-2A1.46,1.46,0,0,1,246,48a23.5,23.5,0,0,0,7.14-6.91L250,41h0a1.52,1.52,0,0,1-1.47-1.73,1.63,1.63,0,0,1,1.65-1.65h0l4.35.27.06-2.88v0a1.8,1.8,0,0,1,3.59.19v0L258,38.09l6.54.3A1.62,1.62,0,0,1,266,40.2a1.53,1.53,0,0,1-1.64,1.57h-.05l-5.48-.41A29.85,29.85,0,0,0,266,48.24a1.67,1.67,0,0,1,.81,1.52A2.25,2.25,0,0,1,264.55,51.85Z" style="fill:#fff"/><path d="M316,13.69l-36.85-.44A3.8,3.8,0,0,0,275.29,17l-.44,36.85a3.79,3.79,0,0,0,3.75,3.84l36.85.44a3.8,3.8,0,0,0,3.84-3.75l.44-36.85A3.81,3.81,0,0,0,316,13.69Zm-26.05,24.6a16.18,16.18,0,0,0-1.29-1.71c0,6.64,0,16,0,16v0a1.88,1.88,0,0,1-2.1,1.75,1.86,1.86,0,0,1-2.05-1.79v-.05l.35-14.91c-3.45,6.17-4.51,6.16-5.19,6.15a2.07,2.07,0,0,1-2-2,1.87,1.87,0,0,1,.6-1.35A36.83,36.83,0,0,0,285,30.07l0-.59-3.85,0h0a1.86,1.86,0,1,1,.09-3.72l3.8.05,0-7.23v0A1.92,1.92,0,0,1,287,16.74a1.9,1.9,0,0,1,2.05,1.89v0s-.12,3.38-.21,7.22l2.45,0a1.86,1.86,0,0,1,0,3.72h-.05l-2.53-.07-.05,3.76h.22c.71,0,3.94,2.08,3.92,3.81A1.88,1.88,0,0,1,291.1,39,1.37,1.37,0,0,1,289.93,38.29Zm24.66,12.38A2.33,2.33,0,0,1,313,50a40,40,0,0,1-7.79-9.48c0,3.47.08,7.48,0,10.78l0,1.48a2,2,0,0,1-3.88,0V51.32c0-3.21.17-7.23.3-10.65a36,36,0,0,1-7.9,9.92,2.31,2.31,0,0,1-1.52.62,2.09,2.09,0,0,1-2-2,1.93,1.93,0,0,1,.86-1.51,32.51,32.51,0,0,0,9.43-11.22l-6.46.05H294a1.65,1.65,0,0,1-1.67-1.79A1.71,1.71,0,0,1,294.09,33l7.52.09.06-5.07L298,28c-1.87,4.25-3.14,4.27-3.77,4.27a1.84,1.84,0,0,1-1.89-1.68,1.88,1.88,0,0,1,.48-1.17c2-2.52,2.77-5.13,3.61-8.16a1.77,1.77,0,0,1,1.79-1.33,1.84,1.84,0,0,1,1.92,1.8,16.9,16.9,0,0,1-.79,2.78l2.32,0,.07-5.57a1.78,1.78,0,0,1,1.92-1.76,1.82,1.82,0,0,1,2,1.8l-.07,5.58,6.85.08a1.76,1.76,0,1,1-.05,3.51l-6.84-.08-.06,5.07,8.79.1a1.78,1.78,0,0,1,0,3.56h0l-7.86-.26a36.89,36.89,0,0,0,9.51,10.34,2,2,0,0,1,.83,1.62A2.22,2.22,0,0,1,314.59,50.67Z" style="fill:#fff"/><path d="M363.58,12.52l-36.8,2a3.78,3.78,0,0,0-3.58,4l2,36.8a3.79,3.79,0,0,0,4,3.59l36.8-2a3.81,3.81,0,0,0,3.59-4l-2-36.8A3.79,3.79,0,0,0,363.58,12.52Zm-10,5.06c.8,0,5.86,2.05,6,4.12a2,2,0,0,1-1.83,2.09,1.84,1.84,0,0,1-1.43-.6,12.69,12.69,0,0,0-3.39-2.36,1.7,1.7,0,0,1,.68-3.25ZM347.76,47c-6.23,2.92-14.93,5.67-16.49,5.76A2.09,2.09,0,0,1,329,50.81a2,2,0,0,1,1.84-2.09c2-.45,4.18-1,6.26-1.61l-.5-8.44-4.43.24a1.92,1.92,0,1,1-.2-3.84l12.4-.66a1.92,1.92,0,1,1,.21,3.84l-4.05.21.35,7.39c2.12-.75,4.07-1.53,5.55-2.2a2.44,2.44,0,0,1,.71-.21A1.83,1.83,0,0,1,349,45.2,1.87,1.87,0,0,1,347.76,47Zm12.1,6.3A6.23,6.23,0,0,1,355,50.89c-4.56-5.34-6.93-13.13-8.13-21.28l-17.55.94a1.94,1.94,0,1,1-.21-3.88l17.3-.93c-.24-2.18-.4-4.38-.52-6.53A2,2,0,0,1,348,17.28a2,2,0,0,1,2.34,1.86v.09c.06,1,.07,2,.13,3.08s.15,2.11.21,3.21l10.93-.59a1.94,1.94,0,1,1,.21,3.88l-10.76.58c1.8,13.87,7.3,19.33,8.52,19.27.72,0,1.3-1.13,1.78-4a1.9,1.9,0,0,1,1.9-1.67,2.18,2.18,0,0,1,2.39,1.94C365.68,45.79,364.46,53.05,359.86,53.3Z" style="fill:#fff"/><path d="M385.86,34.7c0,1.31,0,2.28,1.94,2.28h1.61a13.58,13.58,0,0,0-1.48-2.32,1,1,0,0,1-.21-.64c0-.8.93-1.43,1.82-1.43,1.52,0,3,2.79,3,3.34A1.61,1.61,0,0,1,392,37h2.16V32c-2.37,0-4.7,0-6.47,0C386.11,32,385.86,32.5,385.86,34.7Z" style="fill:#fff"/><path d="M388,49.75c.09,1.52.09,1.52,7.74,1.52s7.9-.05,7.94-1.57c0-.25,0-.5,0-.8H387.93C387.93,49.2,388,49.49,388,49.75Z" style="fill:#fff"/><path d="M389,45.9c2.86,0,11,0,13.74-.1a.7.7,0,0,0,.4-1.27,2.11,2.11,0,0,0-1-.24c-1.61,0-3.64-.08-5.71-.08-2.49,0-5,0-6.84.08a1.85,1.85,0,0,0-1,.28A.73.73,0,0,0,389,45.9Z" style="fill:#fff"/><path d="M397.19,21.3a2.15,2.15,0,0,0-1.36-.8,1.79,1.79,0,0,0-1.22.76c-.85.93-1.9,2-3,3h8.87C399.3,23.25,398.2,22.28,397.19,21.3Z" style="fill:#fff"/><path d="M414.28,13.47H377.43a3.8,3.8,0,0,0-3.8,3.8V54.12a3.79,3.79,0,0,0,3.8,3.79h36.85a3.79,3.79,0,0,0,3.8-3.79V17.27A3.8,3.8,0,0,0,414.28,13.47ZM403.06,54.18c-2,.09-4.39.13-6.76.13-11.71,0-12.13,0-12.13-6.68,0-3.67,0-6.21,4.69-6.25,2,0,4.57-.09,7.14-.09s5.07.05,7.1.09c2.62,0,4.27,1.65,4.44,3.76,0,.68.09,1.48.09,2.32C407.63,51.18,407.63,54,403.06,54.18Zm9.34-22.44c-.46,0-.93-.08-3-1.18.51.55.68.89.68,3.42,0,.93,0,2-.05,2.45-.12,1.82-1.26,3.17-4.26,3.21-3.22,0-7.1.09-10.95.09-2.83,0-5.62,0-8.07-.09-4.52-.08-4.61-1.73-4.61-4.9a11.67,11.67,0,0,1,.3-3.42c-1.31.76-2.58,1.52-3.43,1.52a2,2,0,0,1-2-2A2.08,2.08,0,0,1,378.34,29a44,44,0,0,0,13.44-10.14,5.17,5.17,0,0,1,3.84-1.73,6,6,0,0,1,4.06,1.69,49.26,49.26,0,0,0,13.78,9.08,1.9,1.9,0,0,1,1.22,1.74A2.25,2.25,0,0,1,412.4,31.74Z" style="fill:#fff"/><path d="M397.57,32V37h1.64a1.23,1.23,0,0,1-.08-.38.79.79,0,0,1,.13-.42c.46-.76.88-1.6,1.56-3a1.29,1.29,0,0,1,1.18-.72,2,2,0,0,1,2,1.7c0,.42-.08.5-1.52,2.74h2.07c1.77,0,1.77-1,1.77-2.2,0-.67,0-1.43,0-1.69C406.1,32,406.1,32,397.57,32Z" style="fill:#fff"/><path d="M402.09,25.83a1.49,1.49,0,0,1-1.48,1.56h-9.13a1.47,1.47,0,0,1-1.56-1.52v-.09c-1.44,1.23-3,2.5-4.52,3.6a8.22,8.22,0,0,1,1.18-.09c2.58-.08,6-.08,9.42-.08s7,0,9.72.08a8.35,8.35,0,0,1,1.82.21,50.9,50.9,0,0,1-5.45-3.93Z" style="fill:#fff"/><path d="M466.23,14.38l-36.81-1.76a3.79,3.79,0,0,0-4,3.61L423.68,53a3.8,3.8,0,0,0,3.61,4l36.81,1.76a3.79,3.79,0,0,0,4-3.61l1.77-36.81A3.8,3.8,0,0,0,466.23,14.38ZM438.29,52.17a1.81,1.81,0,0,1-2.11,1.63c-1.05,0-2.08-.69-2-1.83v0l.86-13.5c-1.54,1.2-4.12,2.85-5.34,2.79a2.07,2.07,0,0,1-2.06-2,2,2,0,0,1,1.3-1.68,24.07,24.07,0,0,0,11.13-10.63c0-.42-.61-.5-.9-.51l-.76,0c-2.41-.11-4.23,0-6.85-.11h0a1.83,1.83,0,0,1-1.86-1.9,1.8,1.8,0,0,1,2-1.73c1.31,0,2.62.08,3.93.11l.16-4.23a1.93,1.93,0,0,1,2.16-1.8,2,2,0,0,1,2,2l-.2,4.18,1.39.07c2.45.16,3.57,1.4,3.5,3-.11,2.2-3.53,6.56-5.68,8.87-.27,6.54-.62,17.36-.62,17.36Zm1.31-15.85a2.06,2.06,0,0,1,2.08-1.8c.8,0,5.2,2.58,5.1,4.64a2.25,2.25,0,0,1-2.17,2.14,1.54,1.54,0,0,1-1.27-.82,10.51,10.51,0,0,0-3.11-3.07A1.2,1.2,0,0,1,439.6,36.32Zm23.27,16.9-20.73-1a1.85,1.85,0,0,1-1.85-2,1.82,1.82,0,0,1,2-1.8l8.36.44.66-14.73-5.49-.22a1.86,1.86,0,0,1-1.85-2,1.82,1.82,0,0,1,2-1.81h0l5.49.3.5-10.55A2,2,0,0,1,454.27,18a2,2,0,0,1,2,2l-.55,10.6,6.12.2h.05a1.86,1.86,0,0,1,1.89,2,1.9,1.9,0,0,1-2.12,1.8l-6.12-.33-.7,14.73,8.19.35a1.9,1.9,0,0,1,1.93,2A1.87,1.87,0,0,1,462.87,53.22Z" style="fill:#fff"/></svg>