<svg id="圖層_1" data-name="圖層 1" xmlns="http://www.w3.org/2000/svg" viewBox="0 0 172.42 59"><title>動森</title><path d="M16.56,29.27l-4.9.48.17,1.79c.4,0,1.2-.08,2-.16,2.63-.26,2.81-.4,2.76-1.22C16.59,29.88,16.59,29.58,16.56,29.27Z" style="fill:#fff"/><path d="M16.26,26.42c-.14-.88-.43-.88-2.49-.68s-2.39.3-2.34,1.39c0,.22,0,.43,0,.68l4.9-.48C16.34,27,16.29,26.69,16.26,26.42Z" style="fill:#fff"/><path d="M19.39,36.58c0,.15,0,.3,0,.45,0,.43.08.82.12,1.22,0,.15,0,.27,0,.42l.06.64,2.29-.22-.26-2.74Z" style="fill:#fff"/><path d="M23,28.64c0,.31.08.61.11.88.11.94.7.88,3.07.65.88-.08,1.79-.17,2.16-.24l-.17-1.79Z" style="fill:#fff"/><path d="M40.73,26.33C39.39,11.76,27.12,9.7,18.89,10.08,12.71,10.37.5,13,0,27.26s4.38,29.3,4.38,29.3c1,2.66,2.56,3,4.78,1.76a7.91,7.91,0,0,1,6.87-.59c2.29.89,5.78.84,7.25-.36s5.81-1.51,8.68,0c2.4,1.26,6.79,0,7.46-2.56S42.27,43,40.73,26.33ZM12,33.67c.08.79.17,1.73.27,2.77.32,3.4.74,8,1.07,12.35a1.28,1.28,0,0,1-1.17,1.46,1.24,1.24,0,0,1-1.38-1.15V49c-.36-5.64-1.38-15.7-1.94-22.12-.27-2.79,1.35-3,4.31-3.33,1.07-.11,2.16-.21,2.67-.23a2.44,2.44,0,0,1,2.67,2.1c.13,1,.26,2.09.36,3.13.36,3.73.4,4.44-5,5C13.18,33.62,12.51,33.66,12,33.67Zm11.9,13.84a1.17,1.17,0,0,1-1.29-1.16l-.48-5-2.37.23c0,3.28-.83,5.63-3.75,7a1.66,1.66,0,0,1-.49.14,1.16,1.16,0,0,1-1.24-1.14,1.1,1.1,0,0,1,.66-1.2c2.06-.72,2.54-2.45,2.53-4.54l-2.08.2a1.08,1.08,0,0,1-1.28-1,1.17,1.17,0,0,1,1.06-1.3l2.16-.21-.05-.48c-.08-.79-.18-1.55-.27-2.25L15.41,37a1.09,1.09,0,0,1-1.28-1,1.18,1.18,0,0,1,1.06-1.3l10-1A1.16,1.16,0,0,1,25.38,36L24,36.12l.26,2.74,2.14-.21A1.16,1.16,0,0,1,26.64,41l-2.13.21L25,46.12A1.17,1.17,0,0,1,23.93,47.51Zm4.81,1c-1.81.18-2.91,0-3-1.39a1.23,1.23,0,0,1,1-1.45,1.62,1.62,0,0,0,.22,0,9.32,9.32,0,0,0,1.46.05c.88-.09,1.45-.51,1.34-2-.09-1.21-.2-2.61-.34-4-.21-2.19-.45-4.5-.64-6.41,0-.46-.08-.86-.12-1.25-.47.08-1.19.18-2,.25-3.36.33-5.47.5-5.79-2-.09-.58-.15-1.21-.21-1.85-.1-1-.17-2.1-.25-3.14a2.41,2.41,0,0,1,2.18-2.57c.5-.08,1.65-.19,2.74-.3.8-.08,1.55-.15,2-.17,2-.07,2.92,1,3.05,2.35.07.73.14,1.49.22,2.25.43,4.56,1,9.53,1.34,13.43.14,1.45.29,2.73.39,3.79C32.5,46.25,31.75,48.26,28.74,48.55Z" style="fill:#fff"/><path d="M25.26,24.62c-2.21.22-2.5.28-2.47,1.19,0,.28,0,.58.06.89L28,26.2C27.8,24.4,27.69,24.38,25.26,24.62Z" style="fill:#fff"/><path d="M59.9,15.9C44.88,17.32,43.2,31,43.39,37.62s3.49,18,3.49,18c.94,3.18,3.38,3.42,5,2.15a7,7,0,0,1,7-.23c2.15,1.25,6.2.37,8-.91a7.64,7.64,0,0,1,7.13-.8c2.52,1,4.56.41,5.19-1.87.32-1.19,1.45-7.53,1.44-17.72S74.84,14.5,59.9,15.9ZM68,46.71a1,1,0,0,1-.75-.34,14.09,14.09,0,0,0-2.54-2,17.51,17.51,0,0,1-9.53,3.42,1.12,1.12,0,0,1-1.25-1.07,1.06,1.06,0,0,1,1.13-1,15,15,0,0,0,7.54-2.36,15.8,15.8,0,0,0-2.49-.79A.79.79,0,0,1,59.5,42c-.92.71-2.91,2.13-3.7,2.15a1.06,1.06,0,0,1-1.1-1.05,1.11,1.11,0,0,1,.67-1,15.54,15.54,0,0,0,6-5,1,1,0,0,1,.87-.5,1.16,1.16,0,0,1,1.18,1,.8.8,0,0,1-.09.39c1.17-.06,2.52-.11,3.41-.13,1.17,0,1.71.61,1.73,1.37,0,1.31-1.85,3.39-2.06,3.63,2.47,1.36,2.75,2,2.76,2.53A1.3,1.3,0,0,1,68,46.71Zm4.08-8.2a23.06,23.06,0,0,1-8.15-4.28l0,1.2v0a1.11,1.11,0,0,1-2.21,0V34.4c-3,2.7-7.44,4.82-8.11,4.83a1.13,1.13,0,0,1-1.15-1.1,1.11,1.11,0,0,1,.82-1.07,21.39,21.39,0,0,0,8.44-5.14l-.1-2.58-2.42.1c-.09.28-.21.59-.34.9.29.18,1.6,1,1.62,1.84a1,1,0,0,1-.92,1,.77.77,0,0,1-.68-.37,8.06,8.06,0,0,0-.83-1c-.19.33-1.6,2.79-2.61,2.82a1,1,0,0,1-1-1,.83.83,0,0,1,.34-.69,9.13,9.13,0,0,0,2.4-3.56l-3.16.12h0a1,1,0,0,1-1-1,1,1,0,0,1,1-1.09l7.59-.16,0-1.26v0a1.11,1.11,0,0,1,2.21-.05v0l0,1.25,7.73-.16a.94.94,0,0,1,1,1,1,1,0,0,1-.93,1.07H68.46c-.11.26-.3.57-.46.91a15.46,15.46,0,0,1,2.46,1.58,1.14,1.14,0,0,1,.4.81,1.12,1.12,0,0,1-1,1.15.9.9,0,0,1-.68-.32c-.61-.6-1.39-1.3-2-1.77-.61.93-1,1.25-1.39,1.26a.92.92,0,0,1-.93-.85.8.8,0,0,1,.23-.6,8.22,8.22,0,0,0,1.3-2.15H63.83l0,2.61a22.63,22.63,0,0,0,8.66,4.3,1,1,0,0,1,.74,1A1.31,1.31,0,0,1,72.08,38.51Z" style="fill:#fff"/><path d="M65.67,39.72c-.84,0-2.4.05-3.83.11-.33.36-.69.7-1,1a22.1,22.1,0,0,1,3.48,1,7.69,7.69,0,0,0,1.56-2.06S65.79,39.72,65.67,39.72Z" style="fill:#fff"/><path d="M123.51,28c-.57-14.09-12.71-16.71-21-16.78-6.18,0-18.52,1.85-19.74,15.54s2.82,28.41,2.82,28.41c.89,2.61,2.4,3,4.68,1.94a8.19,8.19,0,0,1,6.89-.2c2.24,1,5.73,1.11,7.26,0s5.89-1.15,8.67.45c2.33,1.33,6.78.32,7.59-2.07S124.16,44.16,123.51,28Zm-21.86,1.19,4,.13.06-3.51A1.16,1.16,0,0,1,107,24.71a1.15,1.15,0,0,1,1.19,1.2l-.11,3.51,4.39.08a1.1,1.1,0,1,1,0,2.18l-10.8-.26a1.15,1.15,0,0,1-1.16-1.18A1.06,1.06,0,0,1,101.65,29.23Zm4,11.61a1.35,1.35,0,0,1-1.36,1.37A1.12,1.12,0,0,1,103.24,41a27.18,27.18,0,0,0-1.46-6.88,1.25,1.25,0,0,1-.07-.4,1.19,1.19,0,0,1,1.27-1,1.12,1.12,0,0,1,1.08.79A40.1,40.1,0,0,1,105.68,40.84Zm-8.39,2.31a.57.57,0,0,1,0,.13c0,1.62-.91,3-3.22,2.92-.81,0-2.33-.06-2.3-1.43a1.05,1.05,0,0,1,1-1.15l.23,0a4.3,4.3,0,0,0,.94.16c.53,0,.89-.21.94-1.05l.11-4.6a9.4,9.4,0,0,1-2.17.61,1.21,1.21,0,0,1-1.22-1.22,1.13,1.13,0,0,1,.89-1.1c.9-.26,1.77-.49,2.56-.75l.08-4.19L93,31.46a1.07,1.07,0,0,1-1.14-1.1A1.1,1.1,0,0,1,93,29.25l2.13.05.1-4a1.16,1.16,0,0,1,1.23-1.16,1.13,1.13,0,0,1,1.16,1.22l-.12,4,1.44,0a1.11,1.11,0,1,1,0,2.21l-1.45,0-.08,3.3c.56-.22,1.1-.46,1.64-.72A1.17,1.17,0,0,1,99.5,34a1.09,1.09,0,0,1,1,1.12c0,.71-.5,1-3.15,2.08l-.06,2.31C97.27,40,97.28,42.26,97.29,43.15Zm15.61,2.72-13.13-.32a1.08,1.08,0,0,1-1.17-1.1,1.15,1.15,0,0,1,1.22-1.11l6.15.18a59.44,59.44,0,0,0,2.71-10,1.05,1.05,0,0,1,1.17-.93,1.33,1.33,0,0,1,1.39,1.28,64.73,64.73,0,0,1-3,9.65l4.67.09a1.09,1.09,0,0,1,1.12,1.15A1.07,1.07,0,0,1,112.9,45.87Z" style="fill:#fff"/><path d="M172.42,12.49c-.19-5.41-7.46-6.16-9.57-5.92-.53-1.58,1.14-4.14,3.73-4.4-3.75-2.91-6.47-.24-8.39,2.48C156.33,1.17,153.56.22,149.71,0c-3.32-.18-6.42,1.84-7.38,3.67,2.95-.24,7.64,1.05,9.4,3.66-5.45.62-7.92,3.48-7.44,7.75,3.15-3.25,6.29-3.66,7.87-3.31a4.67,4.67,0,0,0-1.31,4.57c.68-1.11,2.88-3.05,4.53-2.64a12.12,12.12,0,0,1-2.94,5.8,22.37,22.37,0,0,0-7.52-1.73c-15-1-18.83,11.72-19.66,18.08s.66,17.7.66,17.7c.43,3.17,2.81,3.79,4.61,2.83a7.26,7.26,0,0,1,7,.88c1.93,1.53,6.07,1.32,8.06.38a7.92,7.92,0,0,1,7.17.36c2.32,1.37,4.44,1.1,5.41-1,.5-1.08,2.6-6.94,4.16-16.64,1-6.16-.27-13.21-5.15-17.8a44.15,44.15,0,0,0,2.25-8.22,12.57,12.57,0,0,1,6.25,7.75c3-4.73,1.31-8.6-.64-10.68A15.26,15.26,0,0,1,172.42,12.49ZM144.35,46a2.25,2.25,0,0,1-2.69,1.77,2.34,2.34,0,0,1-1.89-2.62,2.43,2.43,0,0,1,2.72-1.86A2.17,2.17,0,0,1,144.35,46Zm3.06-16.43c-.51,2.78-2.31,9.16-2.72,11.45-.11.57-.29,1.56-2,1.24-.82-.16-1.57-.69-1.44-1.42v0c0-.14.06-.31.09-.5.42-2.29,1-7.87,1.47-11.62v-.07c.16-.87,1.37-1.08,2.5-.87S147.58,28.6,147.41,29.52Z" style="fill:#fff"/></svg>